<!-- icon666.com - MILLIONS vector ICONS FREE --><svg id="Circular_Glyph" viewBox="0 0 64 64" xmlns="http://www.w3.org/2000/svg" data-name="Circular Glyph"><path d="m24.06 26.84a7.94 7.94 0 0 0 15.88 0c-.43-10.54-15.45-10.54-15.88 0zm7.94 5.83a5.835 5.835 0 1 1 5.84-5.83 5.83509 5.83509 0 0 1 -5.84 5.83z" fill="#000000" style="fill: rgb(255, 255, 255);"></path><path d="m32 0a32 32 0 1 0 32 32 32.004 32.004 0 0 0 -32-32zm.64 51.78a1.05027 1.05027 0 0 1 -1.28 0c-.58-.44-14.19-11-14.19-24.94a14.83 14.83 0 1 1 29.66 0c0 13.94-13.61 24.5-14.19 24.94z" fill="#000000" style="fill: rgb(255, 255, 255);"></path></svg>