<?xml version="1.0" encoding="UTF-8"?>
<svg id="Capa_1" data-name="Capa 1" xmlns="http://www.w3.org/2000/svg" viewBox="0 0 503.6 94.72">
  <defs>
    <style>
      .cls-1 {
        fill: #fff;
      }
    </style>
  </defs>
  <path class="cls-1" d="m94.16,39.1c-.76-2.32-2.76-4-5.17-4.35l-24.45-3.55-10.93-22.08c-2.16-4.36-9.31-4.36-11.48,0l-10.93,22.08-24.39,3.55c-2.41.35-4.41,2.04-5.17,4.36-.76,2.31-.13,4.85,1.62,6.55l17.69,17.24-4.17,24.33c-.41,2.4.58,4.83,2.55,6.27,1.98,1.43,4.6,1.61,6.75.48l21.79-11.49,21.85,11.49c.93.49,1.96.74,2.98.74,1.32,0,2.65-.42,3.77-1.22,1.97-1.44,2.96-3.87,2.55-6.27l-4.17-24.33,17.69-17.24c1.75-1.7,2.37-4.24,1.62-6.56Z"/>
  <path class="cls-1" d="m196.57,39.1c-.76-2.32-2.76-4-5.17-4.35l-24.45-3.55-10.93-22.08c-2.16-4.36-9.31-4.36-11.48,0l-10.93,22.08-24.39,3.55c-2.41.35-4.41,2.04-5.17,4.36-.76,2.31-.13,4.85,1.62,6.55l17.69,17.24-4.17,24.33c-.41,2.4.58,4.84,2.55,6.27,1.97,1.43,4.6,1.61,6.75.48l21.79-11.49,21.85,11.49c.93.49,1.96.74,2.98.74,1.32,0,2.65-.42,3.77-1.22,1.97-1.44,2.96-3.87,2.55-6.27l-4.17-24.33,17.69-17.24c1.75-1.7,2.37-4.24,1.62-6.56Z"/>
  <path class="cls-1" d="m298.98,39.1c-.76-2.32-2.76-4-5.17-4.35l-24.45-3.55-10.93-22.08c-2.16-4.36-9.31-4.36-11.48,0l-10.93,22.08-24.39,3.55c-2.41.35-4.41,2.04-5.17,4.36-.76,2.31-.13,4.85,1.62,6.55l17.69,17.24-4.17,24.33c-.41,2.4.58,4.83,2.55,6.27,1.98,1.43,4.6,1.61,6.75.48l21.79-11.49,21.85,11.49c.93.49,1.96.74,2.98.74,1.32,0,2.65-.42,3.77-1.22,1.97-1.44,2.96-3.87,2.55-6.27l-4.17-24.33,17.69-17.24c1.75-1.7,2.37-4.24,1.62-6.56Z"/>
  <path class="cls-1" d="m401.38,39.1c-.76-2.32-2.76-4-5.17-4.35l-24.45-3.55-10.93-22.08c-2.16-4.36-9.31-4.36-11.48,0l-10.93,22.08-24.39,3.55c-2.41.35-4.41,2.04-5.17,4.36-.76,2.31-.13,4.85,1.62,6.55l17.69,17.24-4.17,24.33c-.41,2.4.58,4.83,2.55,6.27,1.98,1.43,4.6,1.61,6.75.48l21.79-11.49,21.85,11.49c.93.49,1.96.74,2.98.74,1.32,0,2.65-.42,3.77-1.22,1.97-1.44,2.96-3.87,2.55-6.27l-4.17-24.33,17.69-17.24c1.75-1.7,2.37-4.24,1.62-6.56Z"/>
  <path class="cls-1" d="m503.79,39.1c-.76-2.32-2.76-4-5.17-4.35l-24.45-3.55-10.93-22.08c-2.16-4.36-9.31-4.36-11.48,0l-10.93,22.08-24.39,3.55c-2.41.35-4.41,2.04-5.17,4.36-.76,2.31-.13,4.85,1.62,6.55l17.69,17.24-4.17,24.33c-.41,2.4.58,4.83,2.55,6.27,1.11.81,2.43,1.22,3.76,1.22,1.02,0,2.05-.24,2.99-.74l21.79-11.49,21.86,11.49c2.15,1.15,4.76.95,6.74-.49,1.96-1.43,2.95-3.86,2.54-6.26l-4.17-24.33,17.69-17.24c1.75-1.69,2.37-4.24,1.62-6.56Z"/>
</svg>